<svg xmlns="http://www.w3.org/2000/svg" width="30.62" height="32.157" viewBox="0 0 30.62 32.157">
  <path id="Shape" d="M21.278,29.094A3.03,3.03,0,1,1,24.3,32.157,3.047,3.047,0,0,1,21.278,29.094Zm-15.188,0a3.03,3.03,0,1,1,3.022,3.063A3.046,3.046,0,0,1,6.09,29.094ZM9.113,24.5a3.058,3.058,0,0,1-3.038-3.062,2.978,2.978,0,0,1,.38-1.47l2.05-3.751L3.038,4.594H0V1.531H4.966L6.394,4.594,7.837,7.656l3.4,7.244.2.412H22.1l4.192-7.656,1.671-3.062h.014l2.643,1.47L24.756,16.8A3.018,3.018,0,0,1,22.1,18.375H10.784l-1.367,2.5-.045.183a.387.387,0,0,0,.379.383H27.339V24.5ZM15.188,12.25V7.656H10.632V4.594h4.556V0h3.038V4.594h4.557V7.656H18.226V12.25Z" fill="#484848"/>
</svg>
