<svg xmlns="http://www.w3.org/2000/svg" width="24.714" height="24.693" viewBox="0 0 24.714 24.693">
  <path id="icons8-email" d="M16.544,4a12.348,12.348,0,1,0,7.526,22l-1.287-1.608A10.293,10.293,0,1,1,16.512,6.059,10.413,10.413,0,0,1,26.644,16.03c0,.117,0,.229,0,.354a4.1,4.1,0,0,1-4.117,4.085,2.042,2.042,0,0,1-2.059-2.059V10.176H18.41v.8a4.56,4.56,0,0,0-2.573-.8,4.648,4.648,0,0,0-4.632,4.632V17.9a4.608,4.608,0,0,0,8.105,3.023,4.1,4.1,0,0,0,3.216,1.608A6.191,6.191,0,0,0,28.7,16.383c0-.137,0-.269,0-.418A12.449,12.449,0,0,0,16.544,4Zm-.708,8.234a2.56,2.56,0,0,1,2.573,2.573V17.9a2.573,2.573,0,0,1-5.146,0V14.807A2.56,2.56,0,0,1,15.837,12.234Z" transform="translate(-3.991 -3.999)" fill="#c7c7c7"/>
</svg>
