<svg xmlns="http://www.w3.org/2000/svg" width="20.585" height="26.761" viewBox="0 0 20.585 26.761">
  <path id="icons8-password" d="M16.293,3a7.219,7.219,0,0,0-7.2,7.2v3.088H6V29.761H26.585V13.293H23.5V10.2A7.219,7.219,0,0,0,16.293,3Zm0,2.059A5.131,5.131,0,0,1,21.439,10.2v3.088H11.146V10.2A5.131,5.131,0,0,1,16.293,5.059ZM8.059,15.351H24.527V27.7H8.059ZM12.176,20.5A1.029,1.029,0,1,0,13.2,21.527,1.031,1.031,0,0,0,12.176,20.5Zm4.117,0a1.029,1.029,0,1,0,1.029,1.029A1.031,1.031,0,0,0,16.293,20.5Zm4.117,0a1.029,1.029,0,1,0,1.029,1.029A1.031,1.031,0,0,0,20.41,20.5Z" transform="translate(-6 -3)" fill="#c7c7c7"/>
</svg>
